<svg xmlns="http://www.w3.org/2000/svg" width="18" height="18" viewBox="0 0 18 18" aria-hidden="true">
  <path fill="#4285F4" d="M17.64 9.2045c0-.6387-.0573-1.2518-.1636-1.8364H9v3.4764h4.8445c-.2085 1.125-.8423 2.0787-1.7941 2.7168v2.2582h2.9027c1.6991-1.5668 2.687-3.8741 2.687-6.615z"/>
  <path fill="#34A853" d="M9 18c2.43 0 4.4673-.8068 5.9564-2.1809l-2.9027-2.2582c-.8068.54-1.8373.8591-3.0536.8591-2.3482 0-4.3364-1.5868-5.0445-3.7173H.9573v2.3328C2.4382 15.9827 5.4818 18 9 18z"/>
  <path fill="#FBBC05" d="M3.9555 10.7036c-.18-.54-.2827-1.1164-.2827-1.7036 0-.5873.1027-1.1636.2827-1.7036V4.9636H.9573C.3477 6.1799 0 7.56 0 9s.3477 2.8201.9573 4.0364l2.9982-2.3328z"/>
  <path fill="#EA4335" d="M9 3.5795c1.3214 0 2.5068.4541 3.4382 1.3464l2.5786-2.5786C13.4632.8359 11.4268 0 9 0 5.4818 0 2.4382 2.0173.9573 4.9636l2.9982 2.3328C4.6636 5.1663 6.6518 3.5795 9 3.5795z"/>
</svg>
